<svg width="22" height="24" viewBox="0 0 22 24" fill="none" xmlns="http://www.w3.org/2000/svg">
<path d="M19.75 5.88889L18.6662 20.7291C18.6214 21.3458 18.3391 21.923 17.8764 22.3444C17.4137 22.7657 16.8048 23 16.1725 23H5.8275C5.19517 23 4.58633 22.7657 4.12361 22.3444C3.66088 21.923 3.37865 21.3458 3.33375 20.7291L2.25 5.88889M8.5 10.7778V18.1111M13.5 10.7778V18.1111M14.75 5.88889V2.22222C14.75 1.89807 14.6183 1.58719 14.3839 1.35798C14.1495 1.12877 13.8315 1 13.5 1H8.5C8.16848 1 7.85054 1.12877 7.61612 1.35798C7.3817 1.58719 7.25 1.89807 7.25 2.22222V5.88889M1 5.88889H21" stroke="#19324B" stroke-width="1.2" stroke-linecap="round" stroke-linejoin="round"/>
</svg>
